;TYPE=PLATED
;Layer: PTH_Through
;EasyEDA Pro v2.2.45.4, 2026-01-29 09:24:57
;Gerber Generator version 0.3
M48
METRIC,LZ,0000.00000
;Hole size 1 = 0.30500 METRIC
T01C0.30500
;Hole size 2 = 0.90000 METRIC
T02C0.90000
;Hole size 3 = 0.91440 METRIC
T03C0.91440
%
G05
G90
T01
X90.297Y-14.65
X87.01069Y-16.66631
T02
X105.283Y20.32
X105.283Y17.32
X105.283Y14.32
X105.283Y11.32
X105.283Y8.32
X105.283Y5.32
X105.283Y2.32
X105.283Y-0.68
X105.283Y-3.68
X105.283Y-6.68
X105.283Y-9.68
X105.283Y-12.68
X105.283Y-15.68
X105.283Y-18.68
X105.283Y-21.68
X105.283Y-24.68
X105.283Y-27.68
X105.283Y-30.68
X79.287Y20.32
X79.287Y17.32
X79.414Y14.32
X79.414Y11.32
X79.414Y8.32
X79.414Y5.32
X79.414Y2.32
X79.414Y-0.68
X79.414Y-3.68
X79.414Y-6.68
X79.414Y-9.68
X79.414Y-12.68
X79.414Y-15.68
X79.414Y-18.68
X79.414Y-21.68
X79.414Y-24.68
X79.414Y-27.68
X79.414Y-30.68
T03
X88.519Y26.289
X91.059Y26.289
X93.599Y26.289
X96.139Y26.289
M30