G04 Layer: BottomSilkscreenLayer*
G04 EasyEDA Pro v2.2.45.4, 2026-01-29 09:24:57*
G04 Gerber Generator version 0.3*
G04 Scale: 100 percent, Rotated: No, Reflected: No*
G04 Dimensions in millimeters*
G04 Leading zeros omitted, absolute positions, 4 integers and 5 decimals*
G04 Generated by one-click*
%FSLAX45Y45*%
%MOMM*%
%ADD10C,0.203*%
%ADD11C,0.1524*%
%ADD12C,0.254*%
%ADD13C,1.52908*%
%ADD14C,0.3633*%
G75*


G04 Text Start*
G54D10*
G01X8450326Y2059940D02*
G01X8505698Y2059940D01*
G01X8450326Y2059940D02*
G01X8450326Y2025650D01*
G01X8476742Y2059940D02*
G01X8476742Y2038858D01*
G01X8505698Y2059940D02*
G01X8505698Y2025650D01*
G01X8468868Y1992630D02*
G01X8505698Y1992630D01*
G01X8479282Y1992630D02*
G01X8471408Y1984756D01*
G01X8468868Y1979422D01*
G01X8468868Y1971548D01*
G01X8471408Y1966214D01*
G01X8479282Y1963674D01*
G01X8505698Y1963674D01*
G01X9823526Y2105528D02*
G01X9878898Y2105528D01*
G01X9823526Y2105528D02*
G01X9823526Y2081652D01*
G01X9826066Y2073778D01*
G01X9828860Y2071238D01*
G01X9834194Y2068444D01*
G01X9839274Y2068444D01*
G01X9844608Y2071238D01*
G01X9847402Y2073778D01*
G01X9849942Y2081652D01*
G01X9849942Y2105528D02*
G01X9849942Y2081652D01*
G01X9852482Y2073778D01*
G01X9855276Y2071238D01*
G01X9860356Y2068444D01*
G01X9868484Y2068444D01*
G01X9873564Y2071238D01*
G01X9876358Y2073778D01*
G01X9878898Y2081652D01*
G01X9878898Y2105528D01*
G01X9842068Y2022216D02*
G01X9844608Y2027550D01*
G01X9849942Y2032884D01*
G01X9857816Y2035424D01*
G01X9863150Y2035424D01*
G01X9871024Y2032884D01*
G01X9876358Y2027550D01*
G01X9878898Y2022216D01*
G01X9878898Y2014342D01*
G01X9876358Y2009008D01*
G01X9871024Y2003674D01*
G01X9863150Y2001134D01*
G01X9857816Y2001134D01*
G01X9849942Y2003674D01*
G01X9844608Y2009008D01*
G01X9842068Y2014342D01*
G01X9842068Y2022216D01*
G01X9842068Y1954906D02*
G01X9844608Y1960240D01*
G01X9849942Y1965574D01*
G01X9857816Y1968114D01*
G01X9863150Y1968114D01*
G01X9871024Y1965574D01*
G01X9876358Y1960240D01*
G01X9878898Y1954906D01*
G01X9878898Y1947032D01*
G01X9876358Y1941698D01*
G01X9871024Y1936364D01*
G01X9863150Y1933824D01*
G01X9857816Y1933824D01*
G01X9849942Y1936364D01*
G01X9844608Y1941698D01*
G01X9842068Y1947032D01*
G01X9842068Y1954906D01*
G01X9823526Y1892930D02*
G01X9868484Y1892930D01*
G01X9876358Y1890390D01*
G01X9878898Y1885056D01*
G01X9878898Y1879722D01*
G01X9842068Y1900804D02*
G01X9842068Y1882262D01*
G54D11*
G01X8757920Y1582166D02*
G01X8757920Y1647190D01*
G01X8757920Y1582166D02*
G01X8798052Y1582166D01*
G01X8757920Y1613154D02*
G01X8782812Y1613154D01*
G01X8757920Y1647190D02*
G01X8798052Y1647190D01*
G01X8871458Y1591310D02*
G01X8865362Y1585214D01*
G01X8855964Y1582166D01*
G01X8843518Y1582166D01*
G01X8834374Y1585214D01*
G01X8828278Y1591310D01*
G01X8828278Y1597660D01*
G01X8831326Y1603756D01*
G01X8834374Y1606804D01*
G01X8840470Y1609852D01*
G01X8859012Y1616202D01*
G01X8865362Y1619250D01*
G01X8868410Y1622298D01*
G01X8871458Y1628648D01*
G01X8871458Y1637792D01*
G01X8865362Y1644142D01*
G01X8855964Y1647190D01*
G01X8843518Y1647190D01*
G01X8834374Y1644142D01*
G01X8828278Y1637792D01*
G01X8901684Y1582166D02*
G01X8901684Y1647190D01*
G01X8901684Y1582166D02*
G01X8929370Y1582166D01*
G01X8938768Y1585214D01*
G01X8941816Y1588262D01*
G01X8944864Y1594612D01*
G01X8944864Y1603756D01*
G01X8941816Y1609852D01*
G01X8938768Y1613154D01*
G01X8929370Y1616202D01*
G01X8901684Y1616202D01*
G01X8981186Y1582166D02*
G01X9015222Y1582166D01*
G01X8996680Y1606804D01*
G01X9005824Y1606804D01*
G01X9012174Y1609852D01*
G01X9015222Y1613154D01*
G01X9018270Y1622298D01*
G01X9018270Y1628648D01*
G01X9015222Y1637792D01*
G01X9009126Y1644142D01*
G01X8999728Y1647190D01*
G01X8990330Y1647190D01*
G01X8981186Y1644142D01*
G01X8978138Y1640840D01*
G01X8975090Y1634744D01*
G01X9051544Y1597660D02*
G01X9051544Y1594612D01*
G01X9054592Y1588262D01*
G01X9057640Y1585214D01*
G01X9063736Y1582166D01*
G01X9076182Y1582166D01*
G01X9082532Y1585214D01*
G01X9085580Y1588262D01*
G01X9088628Y1594612D01*
G01X9088628Y1600708D01*
G01X9085580Y1606804D01*
G01X9079230Y1616202D01*
G01X9048496Y1647190D01*
G01X9091676Y1647190D01*
G01X9191244Y1582166D02*
G01X9191244Y1647190D01*
G01X9191244Y1582166D02*
G01X9212834Y1582166D01*
G01X9221978Y1585214D01*
G01X9228328Y1591310D01*
G01X9231376Y1597660D01*
G01X9234424Y1606804D01*
G01X9234424Y1622298D01*
G01X9231376Y1631696D01*
G01X9228328Y1637792D01*
G01X9221978Y1644142D01*
G01X9212834Y1647190D01*
G01X9191244Y1647190D01*
G01X9264650Y1582166D02*
G01X9264650Y1647190D01*
G01X9264650Y1582166D02*
G01X9304782Y1582166D01*
G01X9264650Y1613154D02*
G01X9289288Y1613154D01*
G01X9264650Y1647190D02*
G01X9304782Y1647190D01*
G01X9335008Y1582166D02*
G01X9359646Y1647190D01*
G01X9384538Y1582166D02*
G01X9359646Y1647190D01*
G01X9414764Y1582166D02*
G01X9414764Y1647190D01*
G01X9457944Y1582166D02*
G01X9414764Y1625346D01*
G01X9430004Y1609852D02*
G01X9457944Y1647190D01*
G01X9488170Y1582166D02*
G01X9488170Y1647190D01*
G01X9539986Y1582166D02*
G01X9539986Y1647190D01*
G01X9518396Y1582166D02*
G01X9561576Y1582166D01*
G01X9591802Y1594612D02*
G01X9597898Y1591310D01*
G01X9607042Y1582166D01*
G01X9607042Y1647190D01*
G54D12*
G01X9056446Y2512949D02*
G01X9171000Y2469261D01*
G01X9056446Y2425573D02*
G01X9171000Y2469261D01*
G01X9083624Y2292223D02*
G01X9072702Y2297557D01*
G01X9061780Y2308479D01*
G01X9056446Y2319401D01*
G01X9056446Y2341245D01*
G01X9061780Y2352167D01*
G01X9072702Y2363089D01*
G01X9083624Y2368423D01*
G01X9099880Y2374011D01*
G01X9127312Y2374011D01*
G01X9143568Y2368423D01*
G01X9154490Y2363089D01*
G01X9165412Y2352167D01*
G01X9171000Y2341245D01*
G01X9171000Y2319401D01*
G01X9165412Y2308479D01*
G01X9154490Y2297557D01*
G01X9143568Y2292223D01*
G01X9083624Y2158873D02*
G01X9072702Y2164207D01*
G01X9061780Y2175129D01*
G01X9056446Y2186051D01*
G01X9056446Y2207895D01*
G01X9061780Y2218817D01*
G01X9072702Y2229739D01*
G01X9083624Y2235073D01*
G01X9099880Y2240661D01*
G01X9127312Y2240661D01*
G01X9143568Y2235073D01*
G01X9154490Y2229739D01*
G01X9165412Y2218817D01*
G01X9171000Y2207895D01*
G01X9171000Y2186051D01*
G01X9165412Y2175129D01*
G01X9154490Y2164207D01*
G01X9143568Y2158873D01*
G01X9325102Y2438146D02*
G01X9314180Y2449068D01*
G01X9308846Y2465578D01*
G01X9308846Y2487422D01*
G01X9314180Y2503678D01*
G01X9325102Y2514600D01*
G01X9336024Y2514600D01*
G01X9346946Y2509266D01*
G01X9352280Y2503678D01*
G01X9357868Y2492756D01*
G01X9368790Y2459990D01*
G01X9374124Y2449068D01*
G01X9379712Y2443734D01*
G01X9390634Y2438146D01*
G01X9406890Y2438146D01*
G01X9417812Y2449068D01*
G01X9423400Y2465578D01*
G01X9423400Y2487422D01*
G01X9417812Y2503678D01*
G01X9406890Y2514600D01*
G01X9336024Y2304796D02*
G01X9325102Y2310130D01*
G01X9314180Y2321052D01*
G01X9308846Y2331974D01*
G01X9308846Y2353818D01*
G01X9314180Y2364740D01*
G01X9325102Y2375662D01*
G01X9336024Y2380996D01*
G01X9352280Y2386584D01*
G01X9379712Y2386584D01*
G01X9395968Y2380996D01*
G01X9406890Y2375662D01*
G01X9417812Y2364740D01*
G01X9423400Y2353818D01*
G01X9423400Y2331974D01*
G01X9417812Y2321052D01*
G01X9406890Y2310130D01*
G01X9395968Y2304796D01*
G01X9308846Y2253234D02*
G01X9423400Y2253234D01*
G01X9423400Y2253234D02*
G01X9423400Y2187702D01*
G01X9580702Y2436495D02*
G01X9569780Y2447417D01*
G01X9564446Y2463927D01*
G01X9564446Y2485771D01*
G01X9569780Y2502027D01*
G01X9580702Y2512949D01*
G01X9591624Y2512949D01*
G01X9602546Y2507615D01*
G01X9607880Y2502027D01*
G01X9613468Y2491105D01*
G01X9624390Y2458339D01*
G01X9629724Y2447417D01*
G01X9635312Y2442083D01*
G01X9646234Y2436495D01*
G01X9662490Y2436495D01*
G01X9673412Y2447417D01*
G01X9679000Y2463927D01*
G01X9679000Y2485771D01*
G01X9673412Y2502027D01*
G01X9662490Y2512949D01*
G01X9564446Y2384933D02*
G01X9679000Y2384933D01*
G01X9564446Y2384933D02*
G01X9564446Y2346833D01*
G01X9569780Y2330323D01*
G01X9580702Y2319401D01*
G01X9591624Y2314067D01*
G01X9607880Y2308479D01*
G01X9635312Y2308479D01*
G01X9651568Y2314067D01*
G01X9662490Y2319401D01*
G01X9673412Y2330323D01*
G01X9679000Y2346833D01*
G01X9679000Y2384933D01*
G01X9564446Y2213229D02*
G01X9679000Y2256917D01*
G01X9564446Y2213229D02*
G01X9679000Y2169541D01*
G01X9640646Y2240407D02*
G01X9640646Y2186051D01*
G01X8829624Y2431161D02*
G01X8818702Y2436495D01*
G01X8807780Y2447417D01*
G01X8802446Y2458339D01*
G01X8802446Y2480183D01*
G01X8807780Y2491105D01*
G01X8818702Y2502027D01*
G01X8829624Y2507615D01*
G01X8845880Y2512949D01*
G01X8873312Y2512949D01*
G01X8889568Y2507615D01*
G01X8900490Y2502027D01*
G01X8911412Y2491105D01*
G01X8917000Y2480183D01*
G01X8917000Y2458339D01*
G01X8911412Y2447417D01*
G01X8900490Y2436495D01*
G01X8889568Y2431161D01*
G01X8873312Y2431161D01*
G01X8873312Y2458339D02*
G01X8873312Y2431161D01*
G01X8802446Y2379599D02*
G01X8917000Y2379599D01*
G01X8802446Y2379599D02*
G01X8917000Y2303145D01*
G01X8802446Y2303145D02*
G01X8917000Y2303145D01*
G01X8802446Y2251583D02*
G01X8917000Y2251583D01*
G01X8802446Y2251583D02*
G01X8802446Y2213483D01*
G01X8807780Y2196973D01*
G01X8818702Y2186051D01*
G01X8829624Y2180717D01*
G01X8845880Y2175129D01*
G01X8873312Y2175129D01*
G01X8889568Y2180717D01*
G01X8900490Y2186051D01*
G01X8911412Y2196973D01*
G01X8917000Y2213483D01*
G01X8917000Y2251583D01*
G04 Text End*

G04 PolygonModel Start*
G54D11*
G01X10696960Y2235637D02*
G01X10696960Y-3228959D01*
G01X10696795Y-3232610D02*
G01X7772400Y-3232610D01*
G01X7772400Y-3232610D02*
G01X7772400Y2235200D01*
G01X7772400Y2235200D02*
G01X10696960Y2235637D01*

G04 Rect Start*
G54D12*
G01X8928100Y2108200D02*
G01X9321800Y2108200D01*
G01X9321800Y1905000D01*
G01X8928100Y1905000D01*
G01X8928100Y2108200D01*
G04 Rect End*

G04 Circle Start*
G54D13*
G01X8305800Y2006600D03*
G01X10035608Y2006600D03*
G04 Circle End*

M02*

