G04 Layer: BottomLayer*
G04 EasyEDA Pro v2.2.45.4, 2026-01-29 09:24:57*
G04 Gerber Generator version 0.3*
G04 Scale: 100 percent, Rotated: No, Reflected: No*
G04 Dimensions in millimeters*
G04 Leading zeros omitted, absolute positions, 4 integers and 5 decimals*
G04 Generated by one-click*
%FSLAX45Y45*%
%MOMM*%
%ADD10O,2.0X1.46172*%
%ADD11O,2.0X1.5*%
%ADD12C,1.524*%
%ADD13C,0.61*%
%ADD14C,0.254*%
%ADD15C,0.0789*%
G75*


G04 Pad Start*
G54D10*
G01X10528300Y2032000D03*
G01X10528300Y1732000D03*
G01X10528300Y1432000D03*
G01X10528300Y1132000D03*
G01X10528300Y832000D03*
G01X10528300Y532000D03*
G01X10528300Y232000D03*
G01X10528300Y-68000D03*
G01X10528300Y-368000D03*
G01X10528300Y-668000D03*
G01X10528300Y-968000D03*
G01X10528300Y-1268000D03*
G01X10528300Y-1568000D03*
G01X10528300Y-1868000D03*
G01X10528300Y-2168000D03*
G01X10528300Y-2468000D03*
G01X10528300Y-2768000D03*
G01X10528300Y-3068000D03*
G54D11*
G01X7928700Y2032000D03*
G01X7928700Y1732000D03*
G01X7941400Y1432000D03*
G01X7941400Y1132000D03*
G54D10*
G01X7941400Y832000D03*
G01X7941400Y532000D03*
G01X7941400Y232000D03*
G01X7941400Y-68000D03*
G01X7941400Y-368000D03*
G01X7941400Y-668000D03*
G01X7941400Y-968000D03*
G01X7941400Y-1268000D03*
G01X7941400Y-1568000D03*
G01X7941400Y-1868000D03*
G01X7941400Y-2168000D03*
G01X7941400Y-2468000D03*
G01X7941400Y-2768000D03*
G01X7941400Y-3068000D03*
G54D12*
G01X8851900Y2628900D03*
G01X9105900Y2628900D03*
G01X9359900Y2628900D03*
G01X9613900Y2628900D03*
G04 Pad End*

G04 Via Start*
G54D13*
G01X9029700Y-1465000D03*
G01X8701069Y-1666631D03*
G04 Via End*

G04 Track Start*
G54D14*
G01X10528300Y-2768000D02*
G01X9359900Y-1599600D01*
G01X9359900Y2628900D01*
G01X10528300Y-1868000D02*
G01X9613900Y-953600D01*
G01X9613900Y2628900D01*
G01X10528300Y2032000D02*
G01X9817100Y2743200D01*
G01X9220200Y2743200D01*
G01X9105900Y2628900D01*
G01X9029700Y-1465000D02*
G01X8902700Y-1465000D01*
G01X8701069Y-1666631D01*
G01X7928700Y1732000D02*
G01X7955000Y1732000D01*
G01X8851900Y2628900D01*
G04 Track End*

M02*

