G04 Layer: DrillDrawingLayer*
G04 EasyEDA Pro v2.2.45.4, 2026-01-29 09:24:57*
G04 Gerber Generator version 0.3*
G04 Scale: 100 percent, Rotated: No, Reflected: No*
G04 Dimensions in millimeters*
G04 Leading zeros omitted, absolute positions, 4 integers and 5 decimals*
G04 Generated by one-click*
%FSLAX45Y45*%
%MOMM*%
%AMIconRect*4,1,4,0.28,-0.28,-0.28,-0.28,-0.28,0.28,0.28,0.28,0.28,-0.28,0*4,0,4,0.233333,-0.233333,0.233333,0.233333,-0.233333,0.233333,-0.233333,-0.233333,0.233333,-0.233333,0*%
%AMIconTriangle*4,1,3,-0.339593,0.240473,0.339593,0.240473,0,-0.37884,-0.339593,0.240473,0*4,0,3,-0.265673,0.19404,0,-0.27342,0.266233,0.19404,-0.265673,0.19404,0*%
%ADD10IconRect*%
%ADD11C,0.616X0.522667*%
%ADD12IconTriangle*%
G75*


G04 Drill Drawing Start*
G54D10*
G01X8701069Y-1666631D03*
G01X9029700Y-1465000D03*
G54D11*
G01X8851900Y2628900D03*
G01X9105900Y2628900D03*
G01X9359900Y2628900D03*
G01X9613900Y2628900D03*
G54D12*
G01X7928700Y1732000D03*
G01X7928700Y2032000D03*
G01X7941400Y1132000D03*
G01X7941400Y1432000D03*
G01X7941400Y-3068000D03*
G01X7941400Y-2768000D03*
G01X7941400Y-2468000D03*
G01X7941400Y-2168000D03*
G01X7941400Y-1868000D03*
G01X7941400Y-1568000D03*
G01X7941400Y-1268000D03*
G01X7941400Y-968000D03*
G01X7941400Y-668000D03*
G01X7941400Y-368000D03*
G01X7941400Y-68000D03*
G01X7941400Y232000D03*
G01X7941400Y532000D03*
G01X7941400Y832000D03*
G01X10528300Y-3068000D03*
G01X10528300Y-2768000D03*
G01X10528300Y-2468000D03*
G01X10528300Y-2168000D03*
G01X10528300Y-1868000D03*
G01X10528300Y-1568000D03*
G01X10528300Y-1268000D03*
G01X10528300Y-968000D03*
G01X10528300Y-668000D03*
G01X10528300Y-368000D03*
G01X10528300Y-68000D03*
G01X10528300Y232000D03*
G01X10528300Y532000D03*
G01X10528300Y832000D03*
G01X10528300Y1132000D03*
G01X10528300Y1432000D03*
G01X10528300Y1732000D03*
G01X10528300Y2032000D03*
G04 Drill Drawing End*

M02*

