G04 Layer: TopSolderMaskLayer*
G04 EasyEDA Pro v2.2.45.4, 2026-01-29 09:24:57*
G04 Gerber Generator version 0.3*
G04 Scale: 100 percent, Rotated: No, Reflected: No*
G04 Dimensions in millimeters*
G04 Leading zeros omitted, absolute positions, 4 integers and 5 decimals*
G04 Generated by one-click*
%FSLAX45Y45*%
%MOMM*%
%AMRoundRect*1,1,$1,$2,$3*1,1,$1,$4,$5*1,1,$1,0-$2,0-$3*1,1,$1,0-$4,0-$5*20,1,$1,$2,$3,$4,$5,0*20,1,$1,$4,$5,0-$2,0-$3,0*20,1,$1,0-$2,0-$3,0-$4,0-$5,0*20,1,$1,0-$4,0-$5,$2,$3,0*4,1,4,$2,$3,$4,$5,0-$2,0-$3,0-$4,0-$5,$2,$3,0*%
%ADD10O,2.1016X1.56332*%
%ADD11O,2.1016X1.6016*%
%ADD12C,1.6256*%
%ADD13RoundRect,0.09077X-0.50541X0.38042X0.50541X0.38042*%
%ADD14C,0.5935*%
G75*


G04 Image Start*
G36*
G01X10065961Y-2644857D02*
G01X10058480Y-2647958D01*
G01X10055431Y-2646568D01*
G01X10052382Y-2645177D01*
G01X10052382Y-2642316D01*
G01X10059259Y-2635597D01*
G01X10066135Y-2628878D01*
G01X10065395Y-2627679D01*
G01X10064655Y-2626480D01*
G01X10060884Y-2626480D01*
G01X10057237Y-2630131D01*
G01X10053589Y-2633781D01*
G01X10051227Y-2634532D01*
G01X10048866Y-2635282D01*
G01X10048124Y-2634080D01*
G01X10047381Y-2632879D01*
G01X10058769Y-2621600D01*
G01X10070156Y-2610322D01*
G01X10071925Y-2610322D01*
G01X10080472Y-2603882D01*
G01X10089018Y-2597442D01*
G01X10095849Y-2592340D01*
G01X10102679Y-2587238D01*
G01X10111372Y-2581590D01*
G01X10120066Y-2575941D01*
G01X10128759Y-2570301D01*
G01X10137452Y-2564661D01*
G01X10149871Y-2556569D01*
G01X10162290Y-2548476D01*
G01X10167258Y-2545671D01*
G01X10172225Y-2542866D01*
G01X10180298Y-2538528D01*
G01X10188370Y-2534190D01*
G01X10189612Y-2533261D01*
G01X10190854Y-2532333D01*
G01X10199547Y-2527650D01*
G01X10208241Y-2522967D01*
G01X10219418Y-2516771D01*
G01X10259701Y-2496429D01*
G01X10299985Y-2476087D01*
G01X10302108Y-2476087D01*
G01X10309818Y-2472273D01*
G01X10317528Y-2468458D01*
G01X10320943Y-2466612D01*
G01X10324358Y-2464765D01*
G01X10324358Y-2462462D01*
G01X10321564Y-2461814D01*
G01X10318770Y-2461166D01*
G01X10280271Y-2458790D01*
G01X10261021Y-2457479D01*
G01X10241772Y-2456169D01*
G01X10226248Y-2453690D01*
G01X10210724Y-2451211D01*
G01X10206999Y-2451173D01*
G01X10203273Y-2451134D01*
G01X10195700Y-2447763D01*
G01X10188126Y-2444392D01*
G01X10185086Y-2441907D01*
G01X10182046Y-2439421D01*
G01X10171987Y-2425749D01*
G01X10169917Y-2422020D01*
G01X10167847Y-2418291D01*
G01X10164774Y-2413348D01*
G01X10162601Y-2410370D01*
G01X10160427Y-2407391D01*
G01X10160427Y-2394613D01*
G01X10169431Y-2385806D01*
G01X10178435Y-2376998D01*
G01X10188816Y-2369907D01*
G01X10199197Y-2362817D01*
G01X10201856Y-2361592D01*
G01X10204515Y-2360367D01*
G01X10214450Y-2354382D01*
G01X10218797Y-2352055D01*
G01X10223143Y-2349729D01*
G01X10233079Y-2343962D01*
G01X10238667Y-2341089D01*
G01X10244256Y-2338216D01*
G01X10249844Y-2336198D01*
G01X10255433Y-2334180D01*
G01X10260400Y-2332367D01*
G01X10265368Y-2330554D01*
G01X10269281Y-2328745D01*
G01X10273195Y-2326936D01*
G01X10276545Y-2326852D01*
G01X10281513Y-2324451D01*
G01X10286480Y-2322049D01*
G01X10288343Y-2321965D01*
G01X10290206Y-2321880D01*
G01X10295174Y-2319479D01*
G01X10300141Y-2317077D01*
G01X10306521Y-2316993D01*
G01X10313266Y-2314938D01*
G01X10320011Y-2312884D01*
G01X10336156Y-2311400D01*
G01X10344849Y-2311856D01*
G01X10353543Y-2312311D01*
G01X10360994Y-2316034D01*
G01X10364350Y-2319175D01*
G01X10367706Y-2322316D01*
G01X10370719Y-2328666D01*
G01X10373732Y-2335015D01*
G01X10375133Y-2338123D01*
G01X10376534Y-2341230D01*
G01X10379577Y-2346202D01*
G01X10382620Y-2351173D01*
G01X10382674Y-2353886D01*
G01X10382727Y-2356599D01*
G01X10380371Y-2357347D01*
G01X10378015Y-2358096D01*
G01X10368884Y-2356014D01*
G01X10359752Y-2353933D01*
G01X10348575Y-2352961D01*
G01X10334914Y-2356012D01*
G01X10321253Y-2359063D01*
G01X10312560Y-2361738D01*
G01X10303867Y-2364413D01*
G01X10297657Y-2366191D01*
G01X10291448Y-2367969D01*
G01X10287534Y-2369825D01*
G01X10283621Y-2371682D01*
G01X10281946Y-2371724D01*
G01X10280271Y-2371766D01*
G01X10270336Y-2376569D01*
G01X10269301Y-2376611D01*
G01X10268267Y-2376653D01*
G01X10251915Y-2384863D01*
G01X10235562Y-2393073D01*
G01X10228111Y-2397190D01*
G01X10211377Y-2408348D01*
G01X10211361Y-2409196D01*
G01X10211345Y-2410045D01*
G01X10213709Y-2410796D01*
G01X10216073Y-2411546D01*
G01X10245498Y-2413794D01*
G01X10264126Y-2415179D01*
G01X10282754Y-2416564D01*
G01X10306351Y-2418454D01*
G01X10329947Y-2420344D01*
G01X10343608Y-2421383D01*
G01X10357269Y-2422422D01*
G01X10365596Y-2424533D01*
G01X10373923Y-2426644D01*
G01X10377524Y-2429304D01*
G01X10381125Y-2431963D01*
G01X10384182Y-2435692D01*
G01X10387240Y-2439421D01*
G01X10392913Y-2449369D01*
G01X10398587Y-2459318D01*
G01X10399943Y-2464235D01*
G01X10401300Y-2469152D01*
G01X10388427Y-2481059D01*
G01X10386630Y-2481059D01*
G01X10384873Y-2482818D01*
G01X10383115Y-2484577D01*
G01X10351059Y-2500804D01*
G01X10308834Y-2521061D01*
G01X10303731Y-2523433D01*
G01X10298627Y-2525804D01*
G01X10296985Y-2525804D01*
G01X10286144Y-2530920D01*
G01X10275303Y-2536036D01*
G01X10259569Y-2543826D01*
G01X10255638Y-2546032D01*
G01X10251707Y-2548238D01*
G01X10247981Y-2550680D01*
G01X10244256Y-2553122D01*
G01X10238046Y-2556024D01*
G01X10226869Y-2561337D01*
G01X10223143Y-2563635D01*
G01X10219418Y-2565933D01*
G01X10216053Y-2568241D01*
G01X10212688Y-2570549D01*
G01X10204377Y-2570549D01*
G01X10200134Y-2573681D01*
G01X10195892Y-2576813D01*
G01X10194864Y-2578653D01*
G01X10193835Y-2580492D01*
G01X10186842Y-2580492D01*
G01X10183699Y-2582967D01*
G01X10180555Y-2585442D01*
G01X10169409Y-2590224D01*
G01X10166242Y-2594379D01*
G01X10163076Y-2598533D01*
G01X10155853Y-2602159D01*
G01X10148629Y-2605785D01*
G01X10143517Y-2609932D01*
G01X10138405Y-2614078D01*
G01X10130251Y-2616640D01*
G01X10122097Y-2619201D01*
G01X10118146Y-2625237D01*
G01X10113620Y-2625237D01*
G01X10111372Y-2627723D01*
G01X10109125Y-2630209D01*
G01X10102175Y-2630209D01*
G01X10098701Y-2631706D01*
G01X10095228Y-2633203D01*
G01X10091325Y-2636989D01*
G01X10087422Y-2640774D01*
G01X10085768Y-2642110D01*
G01X10084114Y-2643445D01*
G01X10080605Y-2641488D01*
G01X10077097Y-2639531D01*
G01X10073341Y-2644503D01*
G01X10070116Y-2640152D01*
G01X10067452Y-2640152D01*
G01X10066706Y-2642505D01*
G01X10065961Y-2644857D01*
G37*
G36*
G01X10069489Y-2606357D02*
G01X10066835Y-2606834D01*
G01X10064180Y-2607311D01*
G01X10061936Y-2606847D01*
G01X10059692Y-2606384D01*
G01X10058368Y-2603071D01*
G01X10057043Y-2599757D01*
G01X10055812Y-2583600D01*
G01X10054581Y-2567442D01*
G01X10054898Y-2561848D01*
G01X10055215Y-2556255D01*
G01X10054863Y-2535126D01*
G01X10054690Y-2531646D01*
G01X10054516Y-2528166D01*
G01X10063487Y-2519942D01*
G01X10064765Y-2516577D01*
G01X10066043Y-2513213D01*
G01X10066027Y-2506538D01*
G01X10063559Y-2502810D01*
G01X10061092Y-2499081D01*
G01X10061126Y-2495352D01*
G01X10061160Y-2491623D01*
G01X10065959Y-2481680D01*
G01X10066001Y-2480122D01*
G01X10066043Y-2478564D01*
G01X10068527Y-2473926D01*
G01X10071011Y-2469288D01*
G01X10071011Y-2458833D01*
G01X10068633Y-2457362D01*
G01X10066544Y-2461442D01*
G01X10064455Y-2465522D01*
G01X10062664Y-2466765D01*
G01X10060590Y-2470494D01*
G01X10058516Y-2474222D01*
G01X10056108Y-2477951D01*
G01X10053700Y-2481680D01*
G01X10051721Y-2485187D01*
G01X10049743Y-2488694D01*
G01X10042680Y-2498421D01*
G01X10035617Y-2508147D01*
G01X10033754Y-2510875D01*
G01X10031891Y-2513604D01*
G01X10026522Y-2521053D01*
G01X10021152Y-2528501D01*
G01X10018321Y-2533831D01*
G01X10015489Y-2539161D01*
G01X9990908Y-2561983D01*
G01X9983457Y-2566563D01*
G01X9976005Y-2571142D01*
G01X9969346Y-2570854D01*
G01X9962686Y-2570566D01*
G01X9953201Y-2565961D01*
G01X9943716Y-2561355D01*
G01X9923339Y-2540988D01*
G01X9922618Y-2537435D01*
G01X9921897Y-2533883D01*
G01X9920698Y-2530066D01*
G01X9919499Y-2526249D01*
G01X9919499Y-2515055D01*
G01X9923364Y-2489138D01*
G01X9925708Y-2486776D01*
G01X9925708Y-2479816D01*
G01X9923225Y-2479816D01*
G01X9923225Y-2484424D01*
G01X9917015Y-2491130D01*
G01X9917015Y-2494830D01*
G01X9914531Y-2499702D01*
G01X9912048Y-2504575D01*
G01X9912070Y-2509024D01*
G01X9904135Y-2525182D01*
G01X9896200Y-2541340D01*
G01X9892384Y-2549419D01*
G01X9888567Y-2557498D01*
G01X9886647Y-2562781D01*
G01X9884726Y-2568063D01*
G01X9880889Y-2578628D01*
G01X9877274Y-2586461D01*
G01X9877274Y-2588086D01*
G01X9874731Y-2593673D01*
G01X9872188Y-2599259D01*
G01X9870375Y-2599956D01*
G01X9868562Y-2600652D01*
G01X9864309Y-2599853D01*
G01X9860055Y-2599055D01*
G01X9856762Y-2593191D01*
G01X9853470Y-2587328D01*
G01X9851551Y-2577385D01*
G01X9849633Y-2567442D01*
G01X9849583Y-2559363D01*
G01X9849534Y-2551284D01*
G01X9855108Y-2533883D01*
G01X9856735Y-2528290D01*
G01X9858361Y-2522696D01*
G01X9862850Y-2513121D01*
G01X9867339Y-2503546D01*
G01X9867339Y-2501192D01*
G01X9883137Y-2470494D01*
G01X9886962Y-2464279D01*
G01X9890787Y-2458065D01*
G01X9895370Y-2448743D01*
G01X9899952Y-2439421D01*
G01X9903516Y-2434076D01*
G01X9907080Y-2428731D01*
G01X9907080Y-2427226D01*
G01X9910008Y-2423380D01*
G01X9912937Y-2419534D01*
G01X9920045Y-2409083D01*
G01X9927153Y-2398631D01*
G01X9934441Y-2391338D01*
G01X9942280Y-2379761D01*
G01X9947345Y-2373581D01*
G01X9952409Y-2367401D01*
G01X9964349Y-2356145D01*
G01X9971419Y-2351397D01*
G01X9978489Y-2346649D01*
G01X9990628Y-2347989D01*
G01X9992631Y-2349725D01*
G01X9994634Y-2351461D01*
G01X10001146Y-2353005D01*
G01X10005771Y-2358129D01*
G01X10010395Y-2363252D01*
G01X10009026Y-2368574D01*
G01X10006549Y-2377275D01*
G01X10004073Y-2385975D01*
G01X9999190Y-2402133D01*
G01X9997189Y-2407726D01*
G01X9995188Y-2413319D01*
G01X9992734Y-2418291D01*
G01X9991596Y-2422020D01*
G01X9990458Y-2425749D01*
G01X9986615Y-2435692D01*
G01X9982773Y-2445635D01*
G01X9979702Y-2454957D01*
G01X9976631Y-2464279D01*
G01X9973981Y-2472358D01*
G01X9971331Y-2480437D01*
G01X9969011Y-2484313D01*
G01X9966691Y-2488188D01*
G01X9966691Y-2497906D01*
G01X9963334Y-2502810D01*
G01X9962577Y-2509420D01*
G01X9961820Y-2516031D01*
G01X9959909Y-2519865D01*
G01X9957998Y-2523700D01*
G01X9958036Y-2528911D01*
G01X9959051Y-2530513D01*
G01X9960067Y-2532115D01*
G01X9966070Y-2529796D01*
G01X9972943Y-2522517D01*
G01X9979816Y-2515239D01*
G01X9984741Y-2508479D01*
G01X9989666Y-2501718D01*
G01X9993392Y-2496224D01*
G01X9998332Y-2488952D01*
G01X10003272Y-2481680D01*
G01X10004901Y-2479989D01*
G01X10006530Y-2478297D01*
G01X10013661Y-2468802D01*
G01X10020792Y-2459308D01*
G01X10022318Y-2456200D01*
G01X10023845Y-2453093D01*
G01X10026278Y-2449364D01*
G01X10028711Y-2445635D01*
G01X10030738Y-2442034D01*
G01X10032765Y-2438432D01*
G01X10046518Y-2419820D01*
G01X10049761Y-2413462D01*
G01X10053003Y-2407105D01*
G01X10062852Y-2392190D01*
G01X10063603Y-2391568D01*
G01X10064354Y-2390947D01*
G01X10070166Y-2382563D01*
G01X10075978Y-2374179D01*
G01X10075978Y-2371705D01*
G01X10080291Y-2368896D01*
G01X10084604Y-2366088D01*
G01X10086159Y-2362360D01*
G01X10087713Y-2358631D01*
G01X10089607Y-2356299D01*
G01X10091502Y-2353966D01*
G01X10095954Y-2349462D01*
G01X10100406Y-2344959D01*
G01X10103174Y-2340334D01*
G01X10105942Y-2335709D01*
G01X10111762Y-2330574D01*
G01X10117582Y-2325438D01*
G01X10126896Y-2320671D01*
G01X10126896Y-2318443D01*
G01X10132174Y-2316573D01*
G01X10137452Y-2314704D01*
G01X10140219Y-2314605D01*
G01X10142985Y-2314507D01*
G01X10150154Y-2318368D01*
G01X10157323Y-2322230D01*
G01X10158875Y-2323492D01*
G01X10160427Y-2324755D01*
G01X10160427Y-2341785D01*
G01X10158076Y-2347101D01*
G01X10155724Y-2352416D01*
G01X10153108Y-2358942D01*
G01X10150492Y-2365467D01*
G01X10145525Y-2377896D01*
G01X10143186Y-2383800D01*
G01X10140848Y-2389704D01*
G01X10135880Y-2402133D01*
G01X10133106Y-2408969D01*
G01X10130331Y-2415805D01*
G01X10120978Y-2439421D01*
G01X10118486Y-2445635D01*
G01X10115994Y-2451850D01*
G01X10112608Y-2460550D01*
G01X10109221Y-2469251D01*
G01X10106182Y-2477330D01*
G01X10103145Y-2485409D01*
G01X10098682Y-2497838D01*
G01X10094787Y-2509646D01*
G01X10090891Y-2521454D01*
G01X10088425Y-2529532D01*
G01X10085960Y-2537611D01*
G01X10083453Y-2545385D01*
G01X10080946Y-2553158D01*
G01X10080946Y-2557322D01*
G01X10076108Y-2573656D01*
G01X10073571Y-2584842D01*
G01X10071033Y-2596029D01*
G01X10070261Y-2601193D01*
G01X10069489Y-2606357D01*
G37*
G36*
G01X8236725Y-2593987D02*
G01X8234774Y-2595940D01*
G01X8232822Y-2597893D01*
G01X8184653Y-2597893D01*
G01X8183367Y-2595489D01*
G01X8182082Y-2593085D01*
G01X8182082Y-2421703D01*
G01X8180529Y-2420418D01*
G01X8178977Y-2419133D01*
G01X8141978Y-2418222D01*
G01X8104980Y-2417311D01*
G01X8103790Y-2415086D01*
G01X8102600Y-2412861D01*
G01X8102600Y-2369693D01*
G01X8105581Y-2366710D01*
G01X8311860Y-2366748D01*
G01X8315586Y-2369103D01*
G01X8316012Y-2391992D01*
G01X8316438Y-2414880D01*
G01X8313562Y-2416897D01*
G01X8310686Y-2418913D01*
G01X8239296Y-2418913D01*
G01X8238011Y-2421317D01*
G01X8236725Y-2423721D01*
G01X8236725Y-2593987D01*
G37*
G36*
G01X9665984Y-2597604D02*
G01X9635390Y-2597936D01*
G01X9625185Y-2589403D01*
G01X9618475Y-2581114D01*
G01X9610945Y-2573035D01*
G01X9603416Y-2564956D01*
G01X9586660Y-2547067D01*
G01X9569904Y-2529179D01*
G01X9556100Y-2514865D01*
G01X9542296Y-2500551D01*
G01X9540266Y-2501331D01*
G01X9538236Y-2502110D01*
G01X9538236Y-2592921D01*
G01X9533268Y-2597893D01*
G01X9486163Y-2597893D01*
G01X9484878Y-2595489D01*
G01X9483592Y-2593085D01*
G01X9483592Y-2371518D01*
G01X9484878Y-2369114D01*
G01X9486163Y-2366710D01*
G01X9533431Y-2366710D01*
G01X9535834Y-2367997D01*
G01X9538236Y-2369283D01*
G01X9538236Y-2458382D01*
G01X9540234Y-2460041D01*
G01X9542232Y-2461701D01*
G01X9552142Y-2451182D01*
G01X9562051Y-2440664D01*
G01X9572767Y-2428856D01*
G01X9583482Y-2417048D01*
G01X9591596Y-2408277D01*
G01X9599710Y-2399507D01*
G01X9608616Y-2389634D01*
G01X9617523Y-2379761D01*
G01X9623594Y-2373235D01*
G01X9629665Y-2366710D01*
G01X9690786Y-2366710D01*
G01X9694715Y-2368219D01*
G01X9694715Y-2370291D01*
G01X9685866Y-2379998D01*
G01X9677016Y-2389704D01*
G01X9649386Y-2419164D01*
G01X9640692Y-2428324D01*
G01X9636471Y-2433251D01*
G01X9632250Y-2438178D01*
G01X9615359Y-2456063D01*
G01X9598468Y-2473949D01*
G01X9596798Y-2476328D01*
G01X9595128Y-2478708D01*
G01X9595842Y-2481437D01*
G01X9596556Y-2484166D01*
G01X9604174Y-2492245D01*
G01X9611791Y-2500324D01*
G01X9627484Y-2516923D01*
G01X9643176Y-2533521D01*
G01X9650628Y-2541717D01*
G01X9658079Y-2549914D01*
G01X9666772Y-2559334D01*
G01X9675466Y-2568755D01*
G01X9686022Y-2580358D01*
G01X9696578Y-2591961D01*
G01X9696578Y-2597272D01*
G01X9665984Y-2597604D01*
G37*
G36*
G01X9075628Y-2595958D02*
G01X9073056Y-2597236D01*
G01X9070484Y-2598515D01*
G01X9025251Y-2598515D01*
G01X9022843Y-2594786D01*
G01X9023176Y-2500945D01*
G01X9023457Y-2421813D01*
G01X9077491Y-2421813D01*
G01X9077491Y-2458189D01*
G01X9080472Y-2461172D01*
G01X9175455Y-2461172D01*
G01X9177464Y-2458065D01*
G01X9177893Y-2441736D01*
G01X9178322Y-2425407D01*
G01X9176918Y-2422781D01*
G01X9175514Y-2420155D01*
G01X9079147Y-2420155D01*
G01X9078319Y-2420984D01*
G01X9077491Y-2421813D01*
G01X9077491Y-2421813D01*
G01X9023457Y-2421813D01*
G01X9023510Y-2407105D01*
G01X9029263Y-2393433D01*
G01X9035448Y-2385281D01*
G01X9040855Y-2380162D01*
G01X9047065Y-2376074D01*
G01X9053274Y-2371985D01*
G01X9059484Y-2370049D01*
G01X9065693Y-2368112D01*
G01X9068177Y-2367527D01*
G01X9070661Y-2366941D01*
G01X9129030Y-2367163D01*
G01X9187399Y-2367384D01*
G01X9194379Y-2370032D01*
G01X9201358Y-2372679D01*
G01X9208040Y-2377350D01*
G01X9214721Y-2382020D01*
G01X9217296Y-2384757D01*
G01X9219872Y-2387495D01*
G01X9223026Y-2392950D01*
G01X9226180Y-2398404D01*
G01X9228523Y-2405241D01*
G01X9230866Y-2412077D01*
G01X9229973Y-2594786D01*
G01X9227457Y-2597893D01*
G01X9179327Y-2597893D01*
G01X9179073Y-2597582D01*
G01X9178819Y-2597272D01*
G01X9178142Y-2555276D01*
G01X9177464Y-2513281D01*
G01X9175601Y-2512104D01*
G01X9173738Y-2510927D01*
G01X9080596Y-2510927D01*
G01X9076870Y-2513281D01*
G01X9076249Y-2554620D01*
G01X9075628Y-2595958D01*
G37*
G36*
G01X8968435Y-2598151D02*
G01X8945229Y-2598515D01*
G01X8940882Y-2594164D01*
G01X8940882Y-2508490D01*
G01X8938480Y-2507204D01*
G01X8936078Y-2505917D01*
G01X8846701Y-2505917D01*
G01X8844737Y-2506671D01*
G01X8842772Y-2507426D01*
G01X8842772Y-2593347D01*
G01X8840717Y-2595620D01*
G01X8838661Y-2597893D01*
G01X8790700Y-2597893D01*
G01X8789414Y-2595489D01*
G01X8788129Y-2593085D01*
G01X8788129Y-2369693D01*
G01X8791109Y-2366710D01*
G01X8814146Y-2366727D01*
G01X8837184Y-2366744D01*
G01X8842772Y-2368243D01*
G01X8842772Y-2449824D01*
G01X8843983Y-2453012D01*
G01X8845194Y-2456200D01*
G01X8936979Y-2456200D01*
G01X8940882Y-2452294D01*
G01X8940882Y-2368065D01*
G01X8948954Y-2366600D01*
G01X8992245Y-2367331D01*
G01X8993259Y-2371060D01*
G01X8994274Y-2374789D01*
G01X8994145Y-2482302D01*
G01X8994017Y-2589814D01*
G01X8992829Y-2593801D01*
G01X8991642Y-2597788D01*
G01X8968435Y-2598151D01*
G37*
G36*
G01X9457762Y-2594684D02*
G01X9455016Y-2596910D01*
G01X9452270Y-2599136D01*
G01X9313777Y-2599136D01*
G01X9302748Y-2597222D01*
G01X9291719Y-2595308D01*
G01X9286751Y-2592741D01*
G01X9281784Y-2590175D01*
G01X9268945Y-2579229D01*
G01X9265653Y-2573335D01*
G01X9262361Y-2567442D01*
G01X9260603Y-2559984D01*
G01X9258845Y-2552527D01*
G01X9258845Y-2413319D01*
G01X9260631Y-2405862D01*
G01X9262417Y-2398404D01*
G01X9264947Y-2393504D01*
G01X9267478Y-2388604D01*
G01X9271526Y-2384370D01*
G01X9275574Y-2380135D01*
G01X9287993Y-2372276D01*
G01X9294823Y-2370146D01*
G01X9301654Y-2368017D01*
G01X9304138Y-2367507D01*
G01X9306622Y-2366998D01*
G01X9453312Y-2366710D01*
G01X9457825Y-2370013D01*
G01X9458461Y-2389965D01*
G01X9459097Y-2409918D01*
G01X9458303Y-2413086D01*
G01X9457509Y-2416253D01*
G01X9455559Y-2418204D01*
G01X9453609Y-2420155D01*
G01X9315191Y-2420155D01*
G01X9312210Y-2423139D01*
G01X9312210Y-2544526D01*
G01X9313763Y-2545120D01*
G01X9315315Y-2545714D01*
G01X9385110Y-2546013D01*
G01X9454905Y-2546312D01*
G01X9456519Y-2547930D01*
G01X9458133Y-2549548D01*
G01X9457762Y-2594684D01*
G37*
G36*
G01X8756984Y-2599136D02*
G01X8616642Y-2599136D01*
G01X8597644Y-2595209D01*
G01X8591868Y-2592279D01*
G01X8586092Y-2589350D01*
G01X8573188Y-2575219D01*
G01X8565208Y-2558741D01*
G01X8565208Y-2407105D01*
G01X8569360Y-2398517D01*
G01X8573513Y-2389930D01*
G01X8579786Y-2383292D01*
G01X8586059Y-2376653D01*
G01X8589121Y-2376653D01*
G01X8590534Y-2374948D01*
G01X8591948Y-2373243D01*
G01X8599069Y-2370699D01*
G01X8606190Y-2368155D01*
G01X8611158Y-2366998D01*
G01X8757244Y-2366710D01*
G01X8759646Y-2367997D01*
G01X8762049Y-2369283D01*
G01X8762049Y-2416249D01*
G01X8760097Y-2418202D01*
G01X8758146Y-2420155D01*
G01X8621861Y-2420155D01*
G01X8620856Y-2421709D01*
G01X8619851Y-2423263D01*
G01X8619496Y-2483044D01*
G01X8619141Y-2542826D01*
G01X8621240Y-2544569D01*
G01X8623339Y-2546312D01*
G01X8690668Y-2545868D01*
G01X8757996Y-2545424D01*
G01X8760022Y-2548320D01*
G01X8762049Y-2551215D01*
G01X8762049Y-2593696D01*
G01X8759516Y-2596416D01*
G01X8756984Y-2599136D01*
G37*
G36*
G01X8538507Y-2593779D02*
G01X8535893Y-2596147D01*
G01X8533280Y-2598515D01*
G01X8390100Y-2598515D01*
G01X8382027Y-2596770D01*
G01X8373955Y-2595026D01*
G01X8368366Y-2592208D01*
G01X8362778Y-2589391D01*
G01X8355696Y-2582145D01*
G01X8348614Y-2574899D01*
G01X8345140Y-2567442D01*
G01X8341666Y-2559984D01*
G01X8341666Y-2407105D01*
G01X8347875Y-2391401D01*
G01X8351439Y-2387064D01*
G01X8355003Y-2382727D01*
G01X8368550Y-2372711D01*
G01X8376841Y-2369757D01*
G01X8385132Y-2366803D01*
G01X8534604Y-2366710D01*
G01X8538507Y-2370616D01*
G01X8538507Y-2414631D01*
G01X8534640Y-2420155D01*
G01X8398119Y-2420155D01*
G01X8396720Y-2423229D01*
G01X8395320Y-2426302D01*
G01X8397551Y-2455579D01*
G01X8411212Y-2457197D01*
G01X8533601Y-2457443D01*
G01X8534812Y-2460631D01*
G01X8536023Y-2463820D01*
G01X8536023Y-2503127D01*
G01X8533970Y-2504833D01*
G01X8531918Y-2506538D01*
G01X8464981Y-2506936D01*
G01X8398045Y-2507333D01*
G01X8396867Y-2510435D01*
G01X8395688Y-2513536D01*
G01X8395688Y-2542819D01*
G01X8400035Y-2546726D01*
G01X8467719Y-2546816D01*
G01X8535402Y-2546906D01*
G01X8536954Y-2549022D01*
G01X8538507Y-2551137D01*
G01X8538507Y-2593779D01*
G37*
G36*
G01X9792204Y-2416389D02*
G01X9709540Y-2416427D01*
G01X9708823Y-2414558D01*
G01X9708107Y-2412689D01*
G01X9716624Y-2400271D01*
G01X9725142Y-2387853D01*
G01X9735867Y-2372303D01*
G01X9738482Y-2369507D01*
G01X9741098Y-2366710D01*
G01X9792521Y-2366710D01*
G01X9794226Y-2368765D01*
G01X9795930Y-2370819D01*
G01X9795930Y-2414026D01*
G01X9794067Y-2415207D01*
G01X9792204Y-2416389D01*
G37*
G36*
G01X9796551Y-2432765D02*
G01X9796551Y-2473460D01*
G01X9791031Y-2477330D01*
G01X9740240Y-2477330D01*
G01X9737969Y-2475273D01*
G01X9735698Y-2473216D01*
G01X9735698Y-2433060D01*
G01X9737250Y-2430991D01*
G01X9738803Y-2428923D01*
G01X9749980Y-2428523D01*
G01X9761157Y-2428124D01*
G01X9775582Y-2427869D01*
G01X9790006Y-2427613D01*
G01X9793279Y-2430189D01*
G01X9796551Y-2432765D01*
G37*
G36*
G01X9796551Y-2533081D02*
G01X9793279Y-2535657D01*
G01X9790006Y-2538233D01*
G01X9741218Y-2538233D01*
G01X9735698Y-2534363D01*
G01X9735698Y-2492549D01*
G01X9738851Y-2489930D01*
G01X9744415Y-2489380D01*
G01X9749980Y-2488829D01*
G01X9755431Y-2489294D01*
G01X9760883Y-2489759D01*
G01X9792648Y-2489759D01*
G01X9796551Y-2493665D01*
G01X9796551Y-2533081D01*
G37*
G36*
G01X9796721Y-2592864D02*
G01X9793588Y-2596000D01*
G01X9790454Y-2599136D01*
G01X9739564Y-2599136D01*
G01X9735698Y-2593611D01*
G01X9735698Y-2553645D01*
G01X9738678Y-2550662D01*
G01X9792204Y-2550700D01*
G01X9794067Y-2551876D01*
G01X9795930Y-2553053D01*
G01X9796325Y-2572958D01*
G01X9796721Y-2592864D01*
G37*
G04 Image End*

G04 Pad Start*
G54D10*
G01X10528300Y2032000D03*
G01X10528300Y1732000D03*
G01X10528300Y1432000D03*
G01X10528300Y1132000D03*
G01X10528300Y832000D03*
G01X10528300Y532000D03*
G01X10528300Y232000D03*
G01X10528300Y-68000D03*
G01X10528300Y-368000D03*
G01X10528300Y-668000D03*
G01X10528300Y-968000D03*
G01X10528300Y-1268000D03*
G01X10528300Y-1568000D03*
G01X10528300Y-1868000D03*
G01X10528300Y-2168000D03*
G01X10528300Y-2468000D03*
G01X10528300Y-2768000D03*
G01X10528300Y-3068000D03*
G54D11*
G01X7928700Y2032000D03*
G01X7928700Y1732000D03*
G01X7941400Y1432000D03*
G01X7941400Y1132000D03*
G54D10*
G01X7941400Y832000D03*
G01X7941400Y532000D03*
G01X7941400Y232000D03*
G01X7941400Y-68000D03*
G01X7941400Y-368000D03*
G01X7941400Y-668000D03*
G01X7941400Y-968000D03*
G01X7941400Y-1268000D03*
G01X7941400Y-1568000D03*
G01X7941400Y-1868000D03*
G01X7941400Y-2168000D03*
G01X7941400Y-2468000D03*
G01X7941400Y-2768000D03*
G01X7941400Y-3068000D03*
G54D12*
G01X8851900Y2628900D03*
G01X9105900Y2628900D03*
G01X9359900Y2628900D03*
G01X9613900Y2628900D03*
G54D13*
G01X8208886Y-1291631D03*
G01X8808885Y-1291631D03*
G01X8208886Y-1666631D03*
G01X8808885Y-1666631D03*
G01X8958885Y-1291631D03*
G01X9558883Y-1291631D03*
G01X8958885Y-1666631D03*
G01X9558883Y-1666631D03*
G01X9708883Y-1291631D03*
G01X10308882Y-1291631D03*
G01X9708883Y-1666631D03*
G01X10308882Y-1666631D03*
G01X8958301Y-701500D03*
G01X9558299Y-701500D03*
G01X8958301Y-1076500D03*
G01X9558299Y-1076500D03*
G01X8958885Y-1877063D03*
G01X9558883Y-1877063D03*
G01X8958885Y-2252063D03*
G01X9558883Y-2252063D03*
G04 Pad End*

M02*

